<?xml version="1.0" encoding="UTF-8"?>
<svg version="1.1" xmlns="http://www.w3.org/2000/svg" width="500" height="500">
<path d="M0 0 C165 0 330 0 500 0 C500 165 500 330 500 500 C335 500 170 500 0 500 C0 335 0 170 0 0 Z " fill="#000000" transform="translate(0,0)"/>
<path d="M0 0 C119.0783776 0 119.0783776 0 141.6875 21.375 C154.74454616 35.00498813 158.35945784 52.04590052 158.3125 70.3125 C158.32861328 71.55451172 158.34472656 72.79652344 158.36132812 74.07617188 C158.36714649 85.17179994 156.52319308 95.15532242 151.4375 105.0625 C150.92195557 106.07364868 150.92195557 106.07364868 150.39599609 107.10522461 C143.01883476 120.92054613 130.70230648 130.78654408 116 136 C113.1852199 136.83305201 110.35339345 137.56168556 107.5 138.25 C106.82445068 138.41330811 106.14890137 138.57661621 105.45288086 138.74487305 C94.9377665 141.09926523 84.31033712 141.14118783 73.58203125 141.09765625 C72.39395874 141.09664917 71.20588623 141.09564209 69.98181152 141.09460449 C65.59203104 141.08941745 61.20226443 141.0754566 56.8125 141.0625 C46.974375 141.041875 37.13625 141.02125 27 141 C27 170.7 27 200.4 27 231 C18.09 231 9.18 231 0 231 C0 154.77 0 78.54 0 0 Z " fill="#37B5FE" transform="translate(300,138)"/>
<path d="M0 0 C1.06914139 -0.00101212 1.06914139 -0.00101212 2.15988159 -0.00204468 C27.57611139 0.0361677 51.42394728 5.3625767 70.5 23.25 C76.51709491 29.58981108 84.5 39.13116484 84.5 48.25 C83.01879883 49.50854492 83.01879883 49.50854492 80.95703125 50.73046875 C80.21259766 51.17197266 79.46816406 51.61347656 78.70117188 52.06835938 C77.91291016 52.52017578 77.12464844 52.97199219 76.3125 53.4375 C75.15911133 54.13262695 75.15911133 54.13262695 73.98242188 54.84179688 C73.23154297 55.27943359 72.48066406 55.71707031 71.70703125 56.16796875 C71.0210083 56.56781982 70.33498535 56.9676709 69.62817383 57.37963867 C67.06689678 58.42712665 65.24208522 58.57108592 62.5 58.25 C60.796875 55.94140625 60.796875 55.94140625 59.25 52.8125 C51.52912796 38.80298591 39.62265349 31.73787254 24.58374023 27.27490234 C2.73455477 21.60081746 -22.22475675 23.80538973 -41.74462891 35.17382812 C-56.96898228 44.50747898 -66.56475703 59.95908343 -70.8125 77.125 C-71.26837566 79.14953028 -71.69305478 81.1763353 -72.09423828 83.21240234 C-72.49602292 85.23002847 -72.94764168 87.23201239 -73.40234375 89.23828125 C-77.33812959 107.92223318 -77.00079252 128.52198409 -73.5 147.25 C-73.30083984 148.62091797 -73.30083984 148.62091797 -73.09765625 150.01953125 C-70.20493726 168.83597955 -62.94259678 187.04232953 -48.03515625 199.51953125 C-28.9240042 212.56458573 -6.40076536 214.77640084 16.1875 211.5625 C29.66467776 208.72832879 42.52124614 202.83013653 50.5 191.25 C60.56488323 172.72207172 58.82863777 154.73359144 59.5 133.25 C37.72 133.25 15.94 133.25 -6.5 133.25 C-6.5 125.99 -6.5 118.73 -6.5 111.25 C24.19 111.25 54.88 111.25 86.5 111.25 C86.5 152.17 86.5 193.09 86.5 235.25 C78.25 235.25 70 235.25 61.5 235.25 C61.5 224.69 61.5 214.13 61.5 203.25 C57.57550698 203.80480986 57.57550698 203.80480986 56.11328125 205.96484375 C55.68402344 206.69832031 55.25476563 207.43179688 54.8125 208.1875 C44.34842797 224.58641885 29.93426403 232.54783642 11.5 237.25 C-13.35491368 241.87873675 -40.16994217 236.48177332 -61.5 223.25 C-87.0542638 205.19890302 -98.57076985 178.1144147 -104.03027344 148.22631836 C-107.37489406 127.03387034 -106.80624709 104.24719301 -102.5 83.25 C-102.25056641 82.03328613 -102.25056641 82.03328613 -101.99609375 80.79199219 C-96.46256685 55.02010299 -82.92438284 30.97724791 -60.64575195 16.09301758 C-41.71730987 4.09837233 -22.17520981 0.01887197 0 0 Z " fill="#37B4FC" transform="translate(152.5,134.75)"/>
<path d="M0 0 C10.1475 -0.04125 20.295 -0.0825 30.75 -0.125 C33.92979492 -0.14320801 37.10958984 -0.16141602 40.38574219 -0.18017578 C42.93945141 -0.18602349 45.49316252 -0.19111839 48.046875 -0.1953125 C49.3457666 -0.20554443 50.6446582 -0.21577637 51.98291016 -0.22631836 C66.99101037 -0.22915758 81.17250602 1.65513918 92.546875 12.39453125 C101.55917718 22.35167156 103.35296862 34.16484786 103.4375 47.125 C103.4475708 48.12595703 103.4576416 49.12691406 103.46801758 50.15820312 C103.33198263 61.91316654 100.42777602 72.89375198 92.5 81.8125 C91.2625 82.8953125 91.2625 82.8953125 90 84 C88.948125 84.99 88.948125 84.99 87.875 86 C75.63281751 94.51630086 62.64385547 95.30908187 48.14453125 95.1953125 C46.91714233 95.19329834 45.68975342 95.19128418 44.4251709 95.18920898 C39.88757532 95.17883028 35.35003348 95.15090846 30.8125 95.125 C20.644375 95.08375 10.47625 95.0425 0 95 C0 63.65 0 32.3 0 0 Z " fill="#000001" transform="translate(327,161)"/>
</svg>
